<svg width="198" height="140" viewBox="0 0 198 140" fill="none" xmlns="http://www.w3.org/2000/svg">
<path d="M135.066 0.283127C129.496 1.08542 124.798 2.55988 118.909 5.35701C115.316 7.04831 92.2078 19.0825 86.8081 22.0531C85.3412 22.8554 83.3854 23.8962 82.45 24.3732C79.6439 25.761 51.8161 40.4188 49.2863 41.8282C44.7156 44.3652 42.8236 46.1866 41.2717 49.4824C40.1662 51.8676 39.7623 53.9275 39.8899 56.5295C40.1237 60.6276 41.548 63.75 44.5881 66.8507C47.7981 70.1249 50.5831 71.1874 55.4513 70.9922C58.5764 70.8838 59.6818 70.5369 64.1462 68.2384C70.6726 64.8775 89.7843 54.9033 92.9732 53.1686C98.0965 50.3931 122.65 37.5783 128.688 34.521C135.214 31.2468 136.766 30.7481 141.231 30.5746C145.95 30.4012 149.522 31.2251 153.986 33.5669C158.323 35.822 162.277 39.9201 164.552 44.4736C165.615 46.6419 166.869 50.3281 167.166 52.2579C167.549 54.6214 167.337 59.6085 166.763 61.7768C165.402 67.0242 162.128 72.4233 158.344 75.6758C155.814 77.8441 155.006 78.2995 134.322 89.0977C129.538 91.613 123.926 94.5619 121.885 95.6678C119.844 96.7736 115.401 99.1154 112 100.85C108.62 102.585 101.732 106.206 96.6935 108.895C87.2333 113.968 84.087 115.573 80.643 117.069C75.9448 119.107 66.9311 121.709 63.6997 121.948C61.6802 122.1 61.2337 122.273 61.7227 122.75C61.8927 122.924 66.9311 125.547 72.8836 128.605C78.8573 131.64 84.9161 134.828 86.3829 135.695C89.3592 137.43 91.5276 138.492 93.7172 139.294C94.9077 139.75 95.7368 139.88 97.8839 139.945C102.455 140.14 102.263 140.205 115.826 133.028C119.802 130.946 132.387 124.311 143.782 118.327C171.95 103.539 171.865 103.56 175.989 100.243C184.365 93.4344 190.934 84.0022 194.186 74.0929C195.377 70.4718 196.249 66.8507 196.652 63.8367C197.163 60.0639 197.163 51.4773 196.652 48.073C194.314 32.6779 186.087 18.9958 173.842 10.1924C166.678 5.03177 159.131 1.95274 150.308 0.543335C146.545 -0.0421143 138.318 -0.193893 135.066 0.283127Z" fill="#C3228F"/>
<path d="M48.4276 0.283211C43.8995 0.998756 38.5848 2.32144 35.1408 3.62244C32.4197 4.66323 27.4664 7.22186 25.1279 8.78305C16.6244 14.4857 10.183 21.8797 5.61233 31.1385C2.44477 37.5567 1.0842 42.0885 0.255106 49.0489C-0.0850353 51.846 -0.0850353 60.129 0.255106 62.9261C0.956647 68.6939 2.42351 74.0063 4.6982 78.9717C7.86577 85.9321 10.4168 89.77 15.2638 94.8873C20.8124 100.763 25.7657 104.276 33.4189 107.702C42.1988 111.627 53.7423 112.971 63.9891 111.258C71.0895 110.066 75.5114 108.331 87.5439 101.913C90.4776 100.351 96.3025 97.2941 100.512 95.1258C104.721 92.9574 108.271 91.0927 108.399 90.9843C108.548 90.8758 111.311 89.3797 114.564 87.6667C147.898 70.2334 148.408 69.9515 150.98 68.1518C154.934 65.398 156.954 61.1698 156.954 55.6839C156.954 49.9596 153.871 44.9941 148.769 42.5222C146.856 41.5898 145.177 41.1562 142.923 41.0044C138.969 40.7225 136.928 41.5464 122.515 49.244C119.879 50.6534 112.608 54.4914 106.358 57.7655C100.108 61.0614 91.6468 65.5281 87.5439 67.6965C75.5326 74.093 62.7136 80.5546 61.3742 80.9016C58.0791 81.7689 52.9557 81.8556 49.3843 81.0967C43.4956 79.8824 37.4793 75.7193 34.0141 70.4502C29.7624 63.9886 28.6356 56.9199 30.5915 49.2006C31.6969 44.8423 33.3551 41.8283 36.2888 38.8577C40.0304 35.0848 41.7736 34.0657 66.3913 21.1859C81.5914 13.2498 86.3746 10.6695 86.3109 10.4527C86.2258 10.1491 82.3354 7.46037 80.4434 6.41957C76.8082 4.35966 71.8336 2.4949 67.4543 1.54084C61.8419 0.304893 62.097 0.326576 55.443 0.261528C51.9353 0.218163 48.789 0.239845 48.4276 0.283211Z" fill="#C3228F"/>
</svg>
